PathFileType	4	(X/Y/Z)	C:/Users/beibeiliu/ov580/test_trc/User3\sequence.50_training_dense_right.trc
DataRate	CameraRate	NumFrames	NumMarkers	Units	OrigDataRate	OrigDataStartFrame	OrigNumFrames
120	120	12	19	mm	120	31	92
Frame#	Time	ThumbCMC			ThumbMCP			ThumbIP			ThumbTip			IndexMCP			IndexPIP			IndexTip			MiddleMCP			MiddlePIP			MiddleTip			RingMCP			RingPIP			RingTip			PinkyMCP			PinkyPIP			PinkyTip			BackHand1			BackHand2			BackHand3	
		X0	Y0	Z0	X1	Y1	Z1	X2	Y2	Z2	X3	Y3	Z3	X4	Y4	Z4	X5	Y5	Z5	X6	Y6	Z6	X7	Y7	Z7	X8	Y8	Z8	X9	Y9	Z9	X10	Y10	Z10	X11	Y11	Z11	X12	Y12	Z12	X13	Y13	Z13	X14	Y14	Z14	X15	Y15	Z15	X16	Y16	Z16	X17	Y17	Z17	X18	Y18	Z18	
30	0.25	163.005	27.9552	66.6614	145.621	43.8906	45.5409	129.252	52.2327	24.0582	114.983	52.7907	6.3768	161.236	14.6847	-9.17112	146.756	14.5307	-32.4473	133.096	18.7603	-51.2492	150.562	-7.8655	-13.5355	125.289	-1.16536	-32.8828	91.799	6.92814	-34.8019	152.501	-29.1847	-6.09359	140.312	-25.6526	-29.7906	115.507	-25.7048	-49.2929	150.371	-46.4896	14.8017	146.681	-53.1244	-8.30249	138.463	-60.4459	-27.4161	173.618	-32.7316	45.1258	179.837	-34.2231	72.5799	185.715	-0.247431	57.9996	
31	0.258333	145.427	28.1917	70.408	122.877	40.282	46.9611	106.133	47.3423	27.6319	89.9936	50.4488	9.12661	148.553	17.9253	-5.67838	132.786	22.4062	-30.9531	117.49	21.0328	-50.7448	151.125	-4.0252	-15.9545	133.077	-4.19648	-38.571	102.478	-1.41305	-58.0672	154.549	-22.3631	-7.54855	145.762	-24.9178	-31.7374	131.902	-24.5402	-52.5989	156.49	-45.3571	13.9806	156.09	-49.9527	-8.06932	152.44	-55.9549	-31.3774	173.15	-22.1631	43.531	182.324	-23.1426	73.7217	175.137	6.3225	58.3029	
32	0.266667	127.159	28.6371	76.1927	101.667	34.2884	51.2138	82.2023	39.7539	30.5059	67.4362	37.2435	13.2453	135.32	26.1077	-2.22892	117.618	31.1239	-28.9962	105.545	28.6346	-46.5092	148.361	5.95902	-10.5869	135.416	7.39404	-39.8432	119.265	0.442749	-66.7769	156.003	-13.3742	-4.9271	151.56	-13.4902	-30.4385	142.32	-19.9585	-57.3832	160.865	-35.1625	13.7115	164.461	-44.5815	-8.61715	160.48	-48.874	-34.974	172.615	-13.2531	44.9953	178.245	-16.565	72.0124	162.854	15.6582	57.4955	
33	0.275	110.888	17.8337	77.7614	84.9396	17.3007	59.8797	63.7936	16.3925	38.6042	48.647	13.0428	17.5411	117.399	32.9887	0.0699181	106.353	34.9708	-22.2366	96.6206	31.6908	-45.053	144.537	14.1449	-6.43554	136.902	20.0132	-35.8366	127.356	19.6042	-64.4101	156.148	-1.88164	-5.92223	155.464	-0.866467	-29.1296	151.784	-6.11283	-53.8883	165.741	-24.666	9.87335	169.693	-31.1394	-10.8328	169.784	-39.3965	-37.1252	167.748	0.770059	46.7243	172.264	-2.06746	72.3864	145.569	23.3357	65.8352	
34	0.283333	101.044	6.23961	77.4221	74.2006	-1.48442	58.4902	59.2337	-9.17807	40.3943	41.9514	-16.6014	19.5226	108.77	28.8803	5.2953	91.4087	37.2199	-18.9505	84.3757	37.3163	-38.5935	133.496	26.7375	-3.28553	131.919	31.5254	-28.4103	126.983	34.4072	-62.1585	149.526	7.77587	-0.249295	151.441	8.95294	-23.8424	146.981	8.37756	-54.805	162.978	-17.6537	9.10478	166.156	-25.7793	-12.2731	164.031	-32.4165	-34.6321	160.354	4.65801	50.8154	165.074	3.23754	78.7087	133.571	22.4208	66.5661	
35	0.291667	98.7672	-1.18447	81.1996	74.2422	-15.1143	55.6852	56.8661	-25.6346	37.9603	51.1998	-36.3363	17.4433	97.6566	33.3117	9.49916	88.9672	37.1445	-11.6984	75.6796	43.5577	-31.408	130.529	31.6519	-0.184272	128.108	39.3986	-25.5657	125.899	43.4604	-55.9636	147.72	9.76114	1.50032	143.211	13.7486	-26.8736	142.776	7.37247	-55.2907	159.136	-13.734	5.39078	158.448	-22.424	-9.67459	156.594	-33.7764	-32.871	154.175	13.2797	52.303	162.378	7.33572	82.3661	130.597	22.145	69.7589	
36	0.3	99.5553	-2.37647	76.3709	81.9901	-19.7854	55.711	63.7247	-30.5122	29.246	57.511	-41.674	12.2923	101.412	33.9548	10.0694	86.0489	42.2258	-8.28888	79.0996	47.8439	-29.4486	125.313	32.7414	-0.521527	123.604	37.1608	-26.1566	115.323	42.5324	-58.9473	143.973	9.26709	-0.660519	139.407	5.4458	-29.5374	134.19	-3.27382	-54.2346	161	-12.4488	8.27067	158.398	-22.8003	-15.5466	155.797	-27.1926	-30.043	154.271	14.3775	51.8211	160.864	12.3206	77.5766	129.792	23.0045	73.0463	
37	0.308333	104.807	-3.13362	78.3767	83.8083	-17.6098	54.0003	67.914	-27.3874	25.5048	62.5562	-37.2605	7.19358	103.038	31.6649	8.81495	91.8287	39.0887	-12.1099	77.5791	47.7999	-31.5495	126.258	25.7427	-7.03225	121.086	22.9434	-33.7389	111.011	18.1351	-64.2271	145.049	7.58846	-3.8089	137.489	-0.49525	-30.6412	131.002	-8.85706	-51.21	165.153	-7.85456	4.20924	163.117	-14.1846	-17.3217	160.723	-16.8117	-37.0712	159.101	18.1245	50.9646	167.368	14.4691	75.1639	130.909	25.2136	66.191	
38	0.316667	104.431	-3.21209	78.8391	84.6982	-13.9134	53.4646	69.3852	-20.4001	25.121	63.032	-29.3541	8.31409	98.1873	26.1023	1.62384	85.3903	27.5139	-18.0264	76.4375	29.7693	-40.3586	123.17	17.2835	-9.23265	111.118	8.31909	-32.042	99.2774	-4.52019	-60.8689	139.603	10.6348	-7.93068	137.718	4.93852	-28.2311	128.709	-4.30855	-52.3319	165.707	4.64911	6.79523	168.54	2.66958	-13.9675	165.766	2.11856	-36.6049	155.657	20.66	49.753	162.113	19.1645	74.669	129.116	26.7908	66.6475	
39	0.325	97.8335	-5.29701	80.3102	81.4073	-10.8179	50.242	70.4665	-15.0367	24.4735	62.2741	-22.6231	6.9518	91.43	18.8511	6.94816	79.8075	13.38	-15.7231	71.0533	8.40666	-39.4572	109.868	16.7174	-8.88621	103.162	4.13682	-32.6844	94.065	-11.8349	-58.1805	135.027	16.4039	-8.61979	127.753	11.6873	-29.886	120.54	0.499585	-54.8836	156.767	14.1087	7.24035	160.965	14.9453	-17.4747	157.75	9.23582	-41.9851	151.793	24.2046	48.7191	160.378	19.7398	77.099	121.111	26.49	68.4675	
40	0.333333	94.622	-4.55002	77.854	79.6195	-11.6576	51.464	68.2792	-14.9438	23.6672	66.0139	-17.928	1.09003	87.8379	17.9646	5.70942	81.2236	7.45633	-17.4775	72.7873	-4.59662	-42.2649	110.551	19.258	-7.29441	99.1955	8.54673	-28.3192	88.9724	-7.15174	-57.4058	132.789	17.2397	-3.44171	122.831	10.9427	-29.4263	117.877	-5.84072	-51.8504	156.523	12.7552	6.57371	154.905	9.38607	-20.1238	147.821	-7.05794	-39.3307	145.103	23.7283	49.7558	155.615	20.5775	77.4942	120.466	23.2712	69.5054	
41	0.341667	94.137	-3.56248	77.9624	76.5773	-11.3212	51.356	73.5155	-12.492	19.1146	73.7657	-17.3427	-5.92589	87.4809	20.8222	5.01481	81.2116	9.51511	-19.63	73.382	-3.44118	-39.405	106.632	21.2723	-8.6398	100.433	10.4783	-31.79	90.0245	-7.69766	-58.7637	129.102	14.7607	-6.21928	119.599	3.57119	-27.3075	113.397	-29.2599	-39.4213	152.176	6.90344	6.98181	140.413	-5.81978	-18.7879	134.385	-30.6342	-21.4209	146.124	23.7274	52.4362	152.721	17.1422	75.6879	115.76	24.7863	71.9425	
